<svg width="670" height="2545" viewBox="0 0 670 2545" fill="none" xmlns="http://www.w3.org/2000/svg">
<path opacity="0.6" d="M184 110.949C256.5 110.949 315.814 17.9324 381.814 5.53266C555.028 -22.8386 574.478 352.618 400.381 309.15C398.858 308.77 397.18 308.19 395.753 307.537C253.645 242.508 493.34 -46.8651 655 277.449C687.5 355.949 648.57 458.52 569 494.949C486 532.949 211.471 492.949 140 672.949C113.187 740.479 179.571 867.182 291.162 900.761C292.71 901.227 294.205 901.773 295.681 902.431C412.763 954.572 633.284 964.776 640 1105.45C645.025 1210.7 568 1255.72 495.5 1241.45C423 1227.18 395.88 1079.17 547 1093.45C674 1105.45 653.703 1270.45 547 1396.45C440.297 1522.45 149.5 1655.95 211 1831.45C281.962 2033.95 637.63 2058.45 497 2229.95C435.936 2304.42 306.847 2190.09 403.886 2129.24C405.237 2128.4 406.783 2127.62 408.264 2127.03C509.619 2086.58 565.096 2184.66 590.685 2246.71C618 2312.95 610.37 2341.98 578.685 2402.71C547 2463.45 399.5 2553.95 237 2539.45C146 2518.45 51 2522.95 4 2539.45" stroke="#FFB35C" stroke-width="7" stroke-linecap="round" stroke-dasharray="20 20"/>
</svg>
