<svg width="1353" height="367" viewBox="0 0 1353 367" fill="none" xmlns="http://www.w3.org/2000/svg">
<path d="M0.770508 41.3392C0.770508 18.5796 19.2208 0.129395 41.9804 0.129395C146.101 0.129395 230.507 84.5359 230.507 188.656V341.331H105.077C47.4703 341.331 0.770508 294.632 0.770508 237.025V41.3392Z" fill="url(#paint0_linear_888_372)"/>
<path d="M378.028 215.68C378.028 204.063 368.611 194.646 356.994 194.646C303.848 194.646 260.765 237.729 260.765 290.875V341.331H327.867C355.57 341.331 378.028 318.873 378.028 291.169V215.68Z" fill="url(#paint1_linear_888_372)"/>
<path d="M447.041 341.326C442.487 341.326 438.795 337.634 438.795 333.08V215.287C438.795 210.732 442.487 207.04 447.041 207.04H481.192C485.684 207.04 489.326 210.682 489.326 215.175V301.866H526.777C531.331 301.866 535.023 305.558 535.023 310.113V333.08C535.023 337.634 531.331 341.326 526.777 341.326H447.041Z" fill="url(#paint2_linear_888_372)"/>
<path d="M997.889 333.08C997.889 337.634 994.197 341.326 989.642 341.326H960.081C955.526 341.326 951.834 337.634 951.834 333.08V214.716C951.834 210.477 955.271 207.04 959.51 207.04L989.754 207.04C994.247 207.04 997.889 210.683 997.889 215.175V333.08Z" fill="url(#paint3_linear_888_372)"/>
<path d="M1203.38 248.697C1199.68 248.697 1196.49 247.359 1193.81 244.684C1191.14 242.008 1189.8 238.817 1189.8 235.112C1189.8 231.407 1191.14 228.242 1193.81 225.617C1196.49 222.993 1199.68 221.681 1203.38 221.681C1207.09 221.681 1210.25 222.993 1212.88 225.617C1215.5 228.242 1216.82 231.407 1216.82 235.112C1216.82 238.817 1215.5 242.008 1212.88 244.684C1210.25 247.359 1207.09 248.697 1203.38 248.697ZM1221.12 250.806C1223.5 249.915 1226.28 251.554 1226.28 254.09V333.08C1226.28 337.634 1222.59 341.326 1218.03 341.326H1188.3C1183.75 341.326 1180.06 337.634 1180.06 333.08V254.044C1180.06 251.518 1182.82 249.876 1185.19 250.746C1190.59 252.725 1195.89 253.803 1203.38 253.803C1210.27 253.803 1215.95 252.745 1221.12 250.806Z" fill="url(#paint4_linear_888_372)"/>
<path d="M1139.96 341.326C1134.08 341.326 1129.02 339.203 1124.77 334.955C1120.52 330.708 1118.4 325.644 1118.4 319.763C1118.4 313.882 1120.52 308.859 1124.77 304.693C1129.02 300.527 1134.08 298.444 1139.96 298.444C1145.84 298.444 1150.87 300.527 1155.03 304.693C1159.2 308.859 1161.28 313.882 1161.28 319.763C1161.28 325.644 1159.2 330.708 1155.03 334.955C1150.87 339.203 1145.84 341.326 1139.96 341.326Z" fill="url(#paint5_linear_888_372)"/>
<path fill-rule="evenodd" clip-rule="evenodd" d="M660.408 272.781V260.613C660.408 259.406 661.064 258.291 662.136 257.737C675.193 250.99 689.9 247.617 706.259 247.617C727.965 247.617 745.562 265.213 745.562 286.92V333.08C745.562 337.634 741.87 341.326 737.315 341.326H709.403C707.581 341.326 706.104 339.849 706.104 338.027V337.625C706.104 336.275 704.561 335.482 703.415 336.196C697.098 340.131 690.25 342.098 682.87 342.098C675.768 342.098 669.851 339.808 665.116 335.228C660.382 330.597 658.015 324.782 658.015 317.783C658.015 309.807 660.948 303.323 666.814 298.331C672.681 293.288 680.348 290.766 689.817 290.766C694.646 290.766 699.378 291.31 704.013 292.398C705.071 292.646 706.111 291.852 705.955 290.776C705.478 287.471 703.855 284.817 701.087 282.816C697.793 280.397 693.188 279.188 687.27 279.188C682.616 279.188 677.905 279.887 673.135 281.284C667.144 283.04 660.408 279.023 660.408 272.781ZM701.156 309.67V320.028V320.691C701.156 321.398 700.707 322.03 700.031 322.235C697.673 322.948 695.514 323.316 693.556 323.339L693.495 323.34C693.45 323.34 693.405 323.34 693.36 323.34C690.478 323.34 688.163 322.594 686.413 321.102C684.663 319.609 683.788 317.654 683.788 315.235C683.788 315.105 683.791 314.977 683.796 314.849C683.791 314.722 683.788 314.593 683.788 314.463C683.788 312.045 684.663 310.089 686.413 308.597C688.163 307.104 690.478 306.358 693.36 306.358C693.425 306.358 693.49 306.359 693.556 306.359C693.589 306.359 693.621 306.359 693.654 306.358C693.685 306.358 693.715 306.358 693.746 306.358C694.657 306.358 695.523 306.44 696.344 306.604C697.513 306.787 698.742 307.074 700.031 307.463C700.707 307.668 701.156 308.3 701.156 309.007V309.67Z" fill="url(#paint6_linear_888_372)"/>
<path fill-rule="evenodd" clip-rule="evenodd" d="M861.278 207.04C865.771 207.04 869.413 210.682 869.413 215.175V333.08C869.413 337.634 865.721 341.326 861.166 341.326H827.83C825.856 341.326 824.255 339.726 824.255 337.751C824.255 336.347 822.531 335.851 821.589 336.893C819.481 339.224 815.987 341.525 809.666 341.214C809.395 341.203 809.934 341.227 809.666 341.214C794.556 340.47 782.653 336.03 773.956 327.895C764.385 318.941 759.599 307.671 759.599 294.085C759.599 280.86 763.947 269.822 772.644 260.971C781.392 252.068 792.276 247.617 805.296 247.617C810.246 247.617 814.626 248.139 818.435 249.184C820.757 249.821 823.281 248.185 823.281 245.777V215.287C823.281 210.732 826.973 207.04 831.528 207.04L861.278 207.04ZM819.398 302.87V303.536C819.398 304.447 818.659 305.186 817.749 305.186H816.682L811.372 305.186H811.37C809.855 305.186 808.48 304.861 807.245 304.213C806.42 303.839 804.453 302.573 803.174 300.501L803.167 300.489C802.1 298.755 801.567 296.512 801.567 293.761C801.567 293.697 801.567 293.633 801.568 293.569C801.567 293.526 801.567 293.484 801.567 293.442L801.567 293.376C801.567 290.625 802.1 288.382 803.167 286.648C803.563 285.857 804.162 285.144 804.854 284.528C805.589 283.874 806.43 283.331 807.245 282.925L807.269 282.912C807.892 282.603 808.499 282.374 809.031 282.237C809.77 282.046 810.549 281.951 811.37 281.951H811.374L811.428 281.951L811.48 281.952C811.48 281.952 814.707 281.952 815.579 281.952L815.615 281.952H816.682H817.749C818.659 281.952 819.398 282.69 819.398 283.601V284.267V302.87Z" fill="url(#paint7_linear_888_372)"/>
<path d="M925.371 341.326H895.809C891.255 341.326 887.563 337.634 887.563 333.08V214.716C887.563 210.477 890.999 207.04 895.239 207.04H925.483C929.975 207.04 933.617 210.682 933.617 215.175V333.08C933.617 337.634 929.925 341.326 925.371 341.326Z" fill="url(#paint8_linear_888_372)"/>
<path d="M1290.09 251.687V255.972C1290.09 257.454 1291.92 258.214 1293.04 257.243C1300.44 250.826 1309.05 247.617 1318.88 247.617C1329.74 247.617 1338.05 250.653 1343.81 256.725C1349.63 262.746 1352.53 271.7 1352.53 283.587V333.08C1352.53 337.634 1348.84 341.326 1344.29 341.326H1307.45V287.138C1307.45 279.419 1304.52 275.56 1298.65 275.56C1296.3 275.56 1293.93 276.254 1291.54 277.643C1290.6 278.185 1290.09 279.213 1290.09 280.293V341.326H1252.28C1247.72 341.326 1244.03 337.634 1244.03 333.08V251.687C1244.03 249.865 1245.51 248.389 1247.33 248.389H1286.79C1288.61 248.389 1290.09 249.865 1290.09 251.687Z" fill="url(#paint9_linear_888_372)"/>
<path fill-rule="evenodd" clip-rule="evenodd" d="M643.212 323.691C632.992 336.158 618.602 342.391 600.04 342.391C584.137 342.391 571.35 337.985 561.676 329.173C552.003 320.31 547.167 308.662 547.167 294.228C547.167 280.503 551.598 269.311 560.461 260.65C569.374 251.99 580.921 247.66 595.102 247.66C602.344 247.66 609.055 248.876 615.233 251.307C621.412 253.738 626.755 257.308 631.262 262.018C635.77 266.728 639.087 272.197 641.214 278.427C643.079 283.89 644.127 290.404 644.356 297.971C644.411 299.763 642.951 301.217 641.158 301.217H598.8C597.67 301.217 596.888 302.344 597.379 303.362C599.138 307.01 601.722 309.941 605.13 312.156C609.181 314.79 613.815 316.106 619.032 316.106C624.067 316.106 628.627 315.349 632.713 313.833C637.511 312.053 644.405 315.146 644.405 320.263C644.405 321.509 644.002 322.728 643.212 323.691ZM597.882 287.153H597.226C596.33 287.153 595.603 286.426 595.603 285.53V283.431C595.603 282.559 595.603 279.252 595.603 279.252C595.603 276.882 596.599 274.527 598.212 272.854C600.035 270.676 602.946 269.605 606.846 269.605C606.909 269.605 606.973 269.605 607.036 269.606L607.109 269.605C607.148 269.605 607.187 269.605 607.226 269.605C611.125 269.605 614.226 271.01 616.049 273.187C615.971 273.079 616.131 273.29 616.049 273.187C617.662 274.861 618.469 276.883 618.469 279.252C618.469 279.252 618.469 282.559 618.469 283.431V285.53C618.469 286.426 617.742 287.153 616.845 287.153H616.19H597.882Z" fill="url(#paint10_linear_888_372)"/>
<path d="M1077.19 360.351C1075.69 363.924 1072.18 366.247 1068.3 366.247H1029.84C1026.65 366.247 1024.49 362.994 1025.73 360.058L1041.28 323.333C1041.84 322.01 1041.82 320.514 1041.24 319.201L1012.38 254.125C1011.07 251.18 1013.23 247.865 1016.45 247.865H1053.91C1055.68 247.865 1057.28 248.911 1057.99 250.53L1066.56 270.085C1067.08 271.28 1068.78 271.267 1069.29 270.064L1077.47 250.593C1078.17 248.94 1079.79 247.865 1081.58 247.865H1117.97C1121.16 247.865 1123.31 251.115 1122.07 254.051L1077.19 360.351Z" fill="url(#paint11_linear_888_372)"/>
<defs>
<linearGradient id="paint0_linear_888_372" x1="37.4756" y1="0.129396" x2="41.8459" y2="385.233" gradientUnits="userSpaceOnUse">
<stop stop-color="#6298D5"/>
<stop offset="1" stop-color="#5900D9"/>
</linearGradient>
<linearGradient id="paint1_linear_888_372" x1="319.397" y1="194.646" x2="319.397" y2="341.331" gradientUnits="userSpaceOnUse">
<stop stop-color="#6298D5"/>
<stop offset="1" stop-color="#6204ED"/>
<stop offset="1" stop-color="#5900D9"/>
</linearGradient>
<linearGradient id="paint2_linear_888_372" x1="896.035" y1="207.04" x2="896.035" y2="365.887" gradientUnits="userSpaceOnUse">
<stop stop-color="#6298D5"/>
<stop offset="1" stop-color="#5900D9"/>
</linearGradient>
<linearGradient id="paint3_linear_888_372" x1="896.035" y1="207.04" x2="896.035" y2="365.887" gradientUnits="userSpaceOnUse">
<stop stop-color="#6298D5"/>
<stop offset="1" stop-color="#5900D9"/>
</linearGradient>
<linearGradient id="paint4_linear_888_372" x1="896.035" y1="207.04" x2="896.035" y2="365.887" gradientUnits="userSpaceOnUse">
<stop stop-color="#6298D5"/>
<stop offset="1" stop-color="#5900D9"/>
</linearGradient>
<linearGradient id="paint5_linear_888_372" x1="896.035" y1="207.04" x2="896.035" y2="365.887" gradientUnits="userSpaceOnUse">
<stop stop-color="#6298D5"/>
<stop offset="1" stop-color="#5900D9"/>
</linearGradient>
<linearGradient id="paint6_linear_888_372" x1="896.035" y1="207.04" x2="896.035" y2="365.887" gradientUnits="userSpaceOnUse">
<stop stop-color="#6298D5"/>
<stop offset="1" stop-color="#5900D9"/>
</linearGradient>
<linearGradient id="paint7_linear_888_372" x1="896.035" y1="207.04" x2="896.035" y2="365.887" gradientUnits="userSpaceOnUse">
<stop stop-color="#6298D5"/>
<stop offset="1" stop-color="#5900D9"/>
</linearGradient>
<linearGradient id="paint8_linear_888_372" x1="896.035" y1="207.04" x2="896.035" y2="365.887" gradientUnits="userSpaceOnUse">
<stop stop-color="#6298D5"/>
<stop offset="1" stop-color="#5900D9"/>
</linearGradient>
<linearGradient id="paint9_linear_888_372" x1="896.035" y1="207.04" x2="896.035" y2="365.887" gradientUnits="userSpaceOnUse">
<stop stop-color="#6298D5"/>
<stop offset="1" stop-color="#5900D9"/>
</linearGradient>
<linearGradient id="paint10_linear_888_372" x1="896.035" y1="207.04" x2="896.035" y2="365.887" gradientUnits="userSpaceOnUse">
<stop stop-color="#6298D5"/>
<stop offset="1" stop-color="#5900D9"/>
</linearGradient>
<linearGradient id="paint11_linear_888_372" x1="896.035" y1="207.04" x2="896.035" y2="365.887" gradientUnits="userSpaceOnUse">
<stop stop-color="#6298D5"/>
<stop offset="1" stop-color="#5900D9"/>
</linearGradient>
</defs>
</svg>
